<mxfile host="Electron" agent="Mozilla/5.0 (Windows NT 10.0; Win64; x64) AppleWebKit/537.36 (KHTML, like Gecko) draw.io/26.0.4 Chrome/128.0.6613.186 Electron/32.2.5 Safari/537.36" version="26.0.4">
  <diagram name="Page-1" id="SDi2mwD2k9EHAN565Sou">
    <mxGraphModel dx="611" dy="428" grid="1" gridSize="10" guides="1" tooltips="1" connect="1" arrows="1" fold="1" page="1" pageScale="1" pageWidth="850" pageHeight="1100" math="0" shadow="0">
      <root>
        <mxCell id="0" />
        <mxCell id="1" parent="0" />
        <mxCell id="3Fm_Y3hD8kuTZwhg9bnZ-1" value="Arduino Nano" style="rounded=0;whiteSpace=wrap;html=1;" parent="1" vertex="1">
          <mxGeometry x="200" y="180" width="120" height="60" as="geometry" />
        </mxCell>
        <mxCell id="3Fm_Y3hD8kuTZwhg9bnZ-2" value="PC/Mobiflight" style="rounded=0;whiteSpace=wrap;html=1;" parent="1" vertex="1">
          <mxGeometry x="10" y="180" width="120" height="60" as="geometry" />
        </mxCell>
        <mxCell id="3Fm_Y3hD8kuTZwhg9bnZ-3" value="MUX" style="rounded=0;whiteSpace=wrap;html=1;" parent="1" vertex="1">
          <mxGeometry x="400" y="180" width="120" height="60" as="geometry" />
        </mxCell>
        <mxCell id="3Fm_Y3hD8kuTZwhg9bnZ-4" value="PCB" style="rounded=0;whiteSpace=wrap;html=1;" parent="1" vertex="1">
          <mxGeometry x="780" y="180" width="60" height="60" as="geometry" />
        </mxCell>
        <mxCell id="3Fm_Y3hD8kuTZwhg9bnZ-7" value="" style="endArrow=classic;startArrow=classic;html=1;rounded=0;exitX=1;exitY=0.5;exitDx=0;exitDy=0;entryX=0;entryY=0.5;entryDx=0;entryDy=0;fillColor=#dae8fc;strokeColor=#6c8ebf;" parent="1" source="3Fm_Y3hD8kuTZwhg9bnZ-2" target="3Fm_Y3hD8kuTZwhg9bnZ-1" edge="1">
          <mxGeometry width="50" height="50" relative="1" as="geometry">
            <mxPoint x="240" y="220" as="sourcePoint" />
            <mxPoint x="290" y="170" as="targetPoint" />
          </mxGeometry>
        </mxCell>
        <mxCell id="zmTHgLgwHPnOFEwjw0xM-9" value="USB" style="edgeLabel;html=1;align=center;verticalAlign=middle;resizable=0;points=[];" vertex="1" connectable="0" parent="3Fm_Y3hD8kuTZwhg9bnZ-7">
          <mxGeometry x="0.0044" y="1" relative="1" as="geometry">
            <mxPoint as="offset" />
          </mxGeometry>
        </mxCell>
        <mxCell id="3Fm_Y3hD8kuTZwhg9bnZ-9" value="" style="endArrow=classic;startArrow=classic;html=1;rounded=0;exitX=1;exitY=0.25;exitDx=0;exitDy=0;entryX=0;entryY=0.25;entryDx=0;entryDy=0;fillColor=#dae8fc;strokeColor=#6c8ebf;" parent="1" source="3Fm_Y3hD8kuTZwhg9bnZ-1" target="3Fm_Y3hD8kuTZwhg9bnZ-3" edge="1">
          <mxGeometry width="50" height="50" relative="1" as="geometry">
            <mxPoint x="360" y="209.47" as="sourcePoint" />
            <mxPoint x="450" y="209.47" as="targetPoint" />
          </mxGeometry>
        </mxCell>
        <mxCell id="3Fm_Y3hD8kuTZwhg9bnZ-10" value="" style="endArrow=classic;html=1;rounded=0;exitX=0;exitY=0.5;exitDx=0;exitDy=0;entryX=1;entryY=0.5;entryDx=0;entryDy=0;" parent="1" source="3Fm_Y3hD8kuTZwhg9bnZ-4" target="zmTHgLgwHPnOFEwjw0xM-1" edge="1">
          <mxGeometry width="50" height="50" relative="1" as="geometry">
            <mxPoint x="520" y="220" as="sourcePoint" />
            <mxPoint x="650" y="210" as="targetPoint" />
          </mxGeometry>
        </mxCell>
        <mxCell id="zmTHgLgwHPnOFEwjw0xM-6" style="edgeStyle=orthogonalEdgeStyle;rounded=0;orthogonalLoop=1;jettySize=auto;html=1;exitX=0.5;exitY=0;exitDx=0;exitDy=0;entryX=0.5;entryY=1;entryDx=0;entryDy=0;fillColor=#f8cecc;strokeColor=#b85450;" edge="1" parent="1" source="3Fm_Y3hD8kuTZwhg9bnZ-11" target="3Fm_Y3hD8kuTZwhg9bnZ-4">
          <mxGeometry relative="1" as="geometry">
            <Array as="points">
              <mxPoint x="260" y="290" />
              <mxPoint x="810" y="290" />
            </Array>
          </mxGeometry>
        </mxCell>
        <mxCell id="zmTHgLgwHPnOFEwjw0xM-7" value="+5V" style="edgeLabel;html=1;align=center;verticalAlign=middle;resizable=0;points=[];" vertex="1" connectable="0" parent="zmTHgLgwHPnOFEwjw0xM-6">
          <mxGeometry x="-0.0512" y="1" relative="1" as="geometry">
            <mxPoint as="offset" />
          </mxGeometry>
        </mxCell>
        <mxCell id="3Fm_Y3hD8kuTZwhg9bnZ-11" value="DC/DC" style="rounded=0;whiteSpace=wrap;html=1;" parent="1" vertex="1">
          <mxGeometry x="200" y="310" width="120" height="60" as="geometry" />
        </mxCell>
        <mxCell id="3Fm_Y3hD8kuTZwhg9bnZ-13" value="" style="endArrow=classic;html=1;rounded=0;entryX=0;entryY=0.5;entryDx=0;entryDy=0;fillColor=#f8cecc;strokeColor=#b85450;" parent="1" target="3Fm_Y3hD8kuTZwhg9bnZ-11" edge="1">
          <mxGeometry width="50" height="50" relative="1" as="geometry">
            <mxPoint x="70" y="340" as="sourcePoint" />
            <mxPoint x="210" y="310" as="targetPoint" />
          </mxGeometry>
        </mxCell>
        <mxCell id="3Fm_Y3hD8kuTZwhg9bnZ-14" value="+12V" style="edgeLabel;html=1;align=center;verticalAlign=middle;resizable=0;points=[];" parent="3Fm_Y3hD8kuTZwhg9bnZ-13" vertex="1" connectable="0">
          <mxGeometry x="-0.0094" relative="1" as="geometry">
            <mxPoint as="offset" />
          </mxGeometry>
        </mxCell>
        <mxCell id="3Fm_Y3hD8kuTZwhg9bnZ-15" value="" style="endArrow=classic;html=1;rounded=0;entryX=0.5;entryY=1;entryDx=0;entryDy=0;exitX=0.5;exitY=0;exitDx=0;exitDy=0;fillColor=#f8cecc;strokeColor=#b85450;" parent="1" source="3Fm_Y3hD8kuTZwhg9bnZ-11" target="3Fm_Y3hD8kuTZwhg9bnZ-1" edge="1">
          <mxGeometry width="50" height="50" relative="1" as="geometry">
            <mxPoint x="330" y="360" as="sourcePoint" />
            <mxPoint x="380" y="310" as="targetPoint" />
          </mxGeometry>
        </mxCell>
        <mxCell id="3Fm_Y3hD8kuTZwhg9bnZ-16" value="+5V" style="edgeLabel;html=1;align=center;verticalAlign=middle;resizable=0;points=[];" parent="3Fm_Y3hD8kuTZwhg9bnZ-15" vertex="1" connectable="0">
          <mxGeometry x="-0.0795" relative="1" as="geometry">
            <mxPoint as="offset" />
          </mxGeometry>
        </mxCell>
        <mxCell id="3Fm_Y3hD8kuTZwhg9bnZ-19" value="+5V" style="endArrow=classic;html=1;rounded=0;entryX=0;entryY=0.75;entryDx=0;entryDy=0;exitX=1;exitY=0.75;exitDx=0;exitDy=0;fillColor=#f8cecc;strokeColor=#b85450;" parent="1" source="3Fm_Y3hD8kuTZwhg9bnZ-1" target="3Fm_Y3hD8kuTZwhg9bnZ-3" edge="1">
          <mxGeometry width="50" height="50" relative="1" as="geometry">
            <mxPoint x="340" y="280" as="sourcePoint" />
            <mxPoint x="390" y="230" as="targetPoint" />
          </mxGeometry>
        </mxCell>
        <mxCell id="3Fm_Y3hD8kuTZwhg9bnZ-21" value="+12V" style="endArrow=classic;html=1;rounded=0;fillColor=#f8cecc;strokeColor=#b85450;entryX=0;entryY=0.5;entryDx=0;entryDy=0;" parent="1" target="3Fm_Y3hD8kuTZwhg9bnZ-22" edge="1">
          <mxGeometry width="50" height="50" relative="1" as="geometry">
            <mxPoint x="190" y="340" as="sourcePoint" />
            <mxPoint x="220" y="480" as="targetPoint" />
            <Array as="points">
              <mxPoint x="190" y="380" />
              <mxPoint x="190" y="400" />
              <mxPoint x="190" y="480" />
            </Array>
          </mxGeometry>
        </mxCell>
        <mxCell id="zmTHgLgwHPnOFEwjw0xM-5" style="edgeStyle=orthogonalEdgeStyle;rounded=0;orthogonalLoop=1;jettySize=auto;html=1;exitX=0;exitY=0.75;exitDx=0;exitDy=0;entryX=0.25;entryY=1;entryDx=0;entryDy=0;startArrow=classic;startFill=1;" edge="1" parent="1" source="3Fm_Y3hD8kuTZwhg9bnZ-22" target="3Fm_Y3hD8kuTZwhg9bnZ-2">
          <mxGeometry relative="1" as="geometry" />
        </mxCell>
        <mxCell id="zmTHgLgwHPnOFEwjw0xM-8" value="HDMI" style="edgeLabel;html=1;align=center;verticalAlign=middle;resizable=0;points=[];" vertex="1" connectable="0" parent="zmTHgLgwHPnOFEwjw0xM-5">
          <mxGeometry x="-0.4193" y="-1" relative="1" as="geometry">
            <mxPoint as="offset" />
          </mxGeometry>
        </mxCell>
        <mxCell id="3Fm_Y3hD8kuTZwhg9bnZ-22" value="Display" style="rounded=0;whiteSpace=wrap;html=1;" parent="1" vertex="1">
          <mxGeometry x="230" y="450" width="120" height="60" as="geometry" />
        </mxCell>
        <mxCell id="zmTHgLgwHPnOFEwjw0xM-3" style="edgeStyle=orthogonalEdgeStyle;rounded=0;orthogonalLoop=1;jettySize=auto;html=1;exitX=0;exitY=0.5;exitDx=0;exitDy=0;entryX=1;entryY=0.5;entryDx=0;entryDy=0;" edge="1" parent="1" source="zmTHgLgwHPnOFEwjw0xM-1" target="3Fm_Y3hD8kuTZwhg9bnZ-3">
          <mxGeometry relative="1" as="geometry" />
        </mxCell>
        <mxCell id="zmTHgLgwHPnOFEwjw0xM-4" style="edgeStyle=orthogonalEdgeStyle;rounded=0;orthogonalLoop=1;jettySize=auto;html=1;exitX=0.5;exitY=0;exitDx=0;exitDy=0;entryX=0.75;entryY=0;entryDx=0;entryDy=0;" edge="1" parent="1" source="zmTHgLgwHPnOFEwjw0xM-1" target="3Fm_Y3hD8kuTZwhg9bnZ-1">
          <mxGeometry relative="1" as="geometry">
            <mxPoint x="649.7692307692307" y="120" as="targetPoint" />
          </mxGeometry>
        </mxCell>
        <mxCell id="zmTHgLgwHPnOFEwjw0xM-1" value="Adapter Board" style="rounded=0;whiteSpace=wrap;html=1;" vertex="1" parent="1">
          <mxGeometry x="590" y="180" width="120" height="60" as="geometry" />
        </mxCell>
      </root>
    </mxGraphModel>
  </diagram>
</mxfile>
